<svg width="72" height="72" viewBox="0 0 72 72" fill="none" xmlns="http://www.w3.org/2000/svg">
<g clip-path="url(#clip0_1326_6432)">
<path d="M59.6277 72C58.8248 72 58.0913 71.5442 57.736 70.8238L53.4569 62.1502C53.1703 61.5692 53.1666 60.8889 53.4466 60.3047L65.8749 34.3901C66.3051 33.4935 67.3031 33.019 68.2696 33.2512C69.2366 33.4835 69.9099 34.3594 69.8855 35.3535L69.1903 63.8949C69.1688 64.781 68.5956 65.5591 67.7556 65.8424C66.9161 66.1251 65.9885 65.8535 65.4345 65.1614L64.7083 64.2535L61.5252 70.8117C61.1735 71.5363 60.4399 71.9974 59.6344 72C59.6322 72 59.6298 72 59.6277 72Z" fill="#7CC8F0"/>
<path d="M36.0029 69.8906C17.3156 69.8906 2.1123 54.6874 2.1123 36C2.1123 24.267 8.1056 13.9074 17.1915 7.82184C19.7526 6.1065 27.8977 10.523 27.8977 10.523C27.8977 10.523 32.3558 2.10938 36.0029 2.10938C54.6903 2.10938 69.8936 17.3126 69.8936 36C69.8936 54.6874 54.6902 69.8906 36.0029 69.8906Z" fill="#00CEF5"/>
<path d="M36.0078 2.10938V69.8905C54.6928 69.8878 69.8935 54.6855 69.8935 36C69.8935 17.3145 54.6928 2.11219 36.0078 2.10938Z" fill="#008ADF"/>
<path d="M10.4743 6.61064L9.98488 6.32812L10.4744 6.04547C11.4834 5.463 11.829 4.17291 11.2464 3.16406C10.6638 2.15508 9.37386 1.80956 8.36502 2.39203L7.8755 2.67455V2.10938C7.8755 0.944437 6.93106 0 5.76613 0C4.60119 0 3.65675 0.944437 3.65675 2.10938V2.67455L3.16738 2.39203C2.15839 1.80914 0.868299 2.15522 0.285971 3.16406C-0.296638 4.17291 0.0490177 5.463 1.058 6.04547L1.54738 6.32812L1.058 6.61078C0.0490177 7.19325 -0.296638 8.48334 0.285971 9.49219C0.676627 10.169 1.38566 10.5472 2.11466 10.5472C2.47255 10.5472 2.83522 10.456 3.16738 10.2642L3.65675 9.9817V10.5469C3.65675 11.7118 4.60119 12.6562 5.76613 12.6562C6.93106 12.6562 7.8755 11.7118 7.8755 10.5469V9.98156L8.36488 10.2641C8.69703 10.4559 9.05971 10.547 9.4176 10.547C10.1466 10.547 10.8556 10.1687 11.2463 9.49205C11.8289 8.4832 11.4832 7.19311 10.4743 6.61064Z" fill="#00CEF5"/>
<path d="M12.6541 65.9545L12.1647 65.6719L12.6542 65.3892C13.6632 64.8067 14.0089 63.5167 13.4263 62.5078C12.8438 61.4988 11.5537 61.1535 10.5448 61.7358L10.0555 62.0183V61.4531C10.0555 60.2882 9.11103 59.3438 7.9461 59.3438C6.78116 59.3438 5.83672 60.2882 5.83672 61.4531V62.0183L5.34735 61.7358C4.33836 61.1532 3.04841 61.4988 2.46594 62.5078C1.88333 63.5167 2.22899 64.8067 3.23797 65.3892L3.72721 65.6719L3.23769 65.9545C2.22871 66.537 1.88305 67.8271 2.46566 68.8359C2.85631 69.5128 3.56535 69.8909 4.29435 69.8909C4.65224 69.8909 5.01491 69.7998 5.34706 69.608L5.83644 69.3255V69.8906C5.83644 71.0556 6.78088 72 7.94581 72C9.11075 72 10.0552 71.0556 10.0552 69.8906V69.3255L10.5446 69.608C10.8767 69.7998 11.2394 69.8909 11.5973 69.8909C12.3263 69.8909 13.0353 69.5126 13.426 68.8359C14.0087 67.8271 13.6631 66.537 12.6541 65.9545Z" fill="#00CEF5"/>
<path d="M70.9431 7.17328L70.4538 6.89062L70.9431 6.60797C71.9521 6.0255 72.2978 4.73541 71.7152 3.72656C71.1326 2.71758 69.8426 2.37206 68.8338 2.95453L68.3444 3.23719V2.67188C68.3444 1.50694 67.4 0.5625 66.235 0.5625C65.0701 0.5625 64.1256 1.50694 64.1256 2.67188V3.23705L63.6363 2.95453C62.6273 2.37206 61.3372 2.71758 60.7549 3.72656C60.1723 4.73541 60.5179 6.0255 61.5269 6.60797L62.0163 6.89062L61.5268 7.17328C60.5178 7.75575 60.1721 9.04584 60.7547 10.0547C61.1454 10.7315 61.8544 11.1097 62.5834 11.1097C62.9413 11.1097 63.304 11.0185 63.6361 10.8267L64.1255 10.5442V11.1094C64.1255 12.2743 65.0699 13.2188 66.2349 13.2188C67.3998 13.2188 68.3443 12.2743 68.3443 11.1094V10.5442L68.8336 10.8267C69.1658 11.0185 69.5285 11.1097 69.8863 11.1097C70.6153 11.1097 71.3244 10.7314 71.715 10.0547C72.2978 9.04584 71.9521 7.75575 70.9431 7.17328Z" fill="#008ADF"/>
<path d="M17.1924 7.82304L23.3498 15.4293C23.5557 15.6838 23.8634 15.8276 24.1956 15.8201C24.5229 15.8119 24.8279 15.6523 25.0211 15.3881L26.8017 12.9513L30.0417 17.8116C30.2393 18.1081 30.5703 18.2813 30.9191 18.2813C30.9767 18.2813 31.0349 18.2765 31.0932 18.2668C31.5027 18.1983 31.834 17.8959 31.9394 17.4941L35.975 2.10986C29.0315 2.11549 22.5706 4.22093 17.1924 7.82304Z" fill="#A8EBFA"/>
<path d="M24.1973 55.9457C21.4315 54.8354 19.4785 52.129 19.4785 48.9663C19.4785 45.8036 21.4315 43.097 24.1973 41.9869C25.0625 41.6397 46.9514 41.6411 47.8191 41.9907C50.5798 43.1034 52.5283 45.8073 52.5283 48.9663C52.5283 52.1253 50.5798 54.8292 47.8191 55.9419C46.9514 56.2915 25.0625 56.2929 24.1973 55.9457Z" fill="#00347B"/>
<path d="M47.8188 41.9905C47.3849 41.8157 41.6964 41.728 36.0078 41.7273V56.2049C41.6964 56.2042 47.3849 56.1165 47.8188 55.9417C50.5795 54.829 52.528 52.1251 52.528 48.9661C52.528 45.8071 50.5795 43.1032 47.8188 41.9905Z" fill="#001737"/>
<path fill-rule="evenodd" clip-rule="evenodd" d="M45.0123 41.4485L26.9774 41.4489C25.9947 41.4512 25.0572 41.6435 24.1973 41.9888V46.8474C24.1973 48.0299 25.1465 48.9974 26.3066 48.9974H45.7082C46.8684 48.9974 47.8176 48.0299 47.8176 46.8474V41.9926C46.9505 41.6431 46.0044 41.4488 45.0123 41.4485Z" fill="#FFF4F4"/>
<path fill-rule="evenodd" clip-rule="evenodd" d="M45.7082 48.9973H26.3066C25.1465 48.9973 24.1973 49.9568 24.1973 51.1296V55.9436C25.0572 56.2887 25.9947 56.4811 26.9774 56.4835L45.0123 56.4839C46.0044 56.4836 46.9505 56.2894 47.8176 55.94V51.1298C47.8176 49.9568 46.8684 48.9973 45.7082 48.9973Z" fill="#F6EFEA"/>
<path fill-rule="evenodd" clip-rule="evenodd" d="M45.0126 41.4485L36.0078 41.4486V48.9972H45.7085C46.8687 48.9972 47.8179 48.0297 47.8179 46.8472V41.9924C46.9508 41.6431 46.0047 41.4488 45.0126 41.4485Z" fill="#F6EFEA"/>
<path fill-rule="evenodd" clip-rule="evenodd" d="M45.7085 48.9973H36.0078V56.4836L45.0126 56.4838C46.0047 56.4835 46.9508 56.2893 47.8179 55.9398V51.1296C47.8179 49.9568 46.8687 48.9973 45.7085 48.9973Z" fill="#EEE1DC"/>
<path d="M27.7256 31.6831C29.7297 29.6789 29.7297 26.4295 27.7256 24.4253C25.7214 22.4211 22.472 22.4211 20.4678 24.4253C18.4636 26.4295 18.4636 29.6789 20.4678 31.6831C22.472 33.6873 25.7214 33.6873 27.7256 31.6831Z" fill="#00347B"/>
<path d="M24.1025 35.2969C20.1092 35.2969 16.8604 32.048 16.8604 28.0547C16.8604 24.0614 20.1092 20.8125 24.1025 20.8125C28.0959 20.8125 31.3447 24.0614 31.3447 28.0547C31.3447 32.048 28.096 35.2969 24.1025 35.2969ZM24.1025 25.0312C22.4354 25.0312 21.0791 26.3876 21.0791 28.0547C21.0791 29.7218 22.4354 31.0781 24.1025 31.0781C25.7696 31.0781 27.126 29.7218 27.126 28.0547C27.126 26.3876 25.7698 25.0312 24.1025 25.0312Z" fill="#FFF4F4"/>
<path d="M47.9043 33.1875C50.7391 33.1875 53.0371 30.8895 53.0371 28.0547C53.0371 25.2199 50.7391 22.9219 47.9043 22.9219C45.0695 22.9219 42.7715 25.2199 42.7715 28.0547C42.7715 30.8895 45.0695 33.1875 47.9043 33.1875Z" fill="#001737"/>
<path d="M47.9043 35.2969C43.911 35.2969 40.6621 32.048 40.6621 28.0547C40.6621 24.0614 43.911 20.8125 47.9043 20.8125C51.8976 20.8125 55.1465 24.0614 55.1465 28.0547C55.1465 32.048 51.8976 35.2969 47.9043 35.2969ZM47.9043 25.0312C46.2372 25.0312 44.8809 26.3876 44.8809 28.0547C44.8809 29.7218 46.2372 31.0781 47.9043 31.0781C49.5714 31.0781 50.9277 29.7218 50.9277 28.0547C50.9277 26.3876 49.5714 25.0312 47.9043 25.0312Z" fill="#F6EFEA"/>
</g>
<defs>
<clipPath id="clip0_1326_6432">
<rect width="72" height="72" fill="white"/>
</clipPath>
</defs>
</svg>
