<svg width="85" height="85" viewBox="0 0 85 85" fill="none" xmlns="http://www.w3.org/2000/svg">
<path d="M83.6719 50.7344C83.6719 59.1016 76.8984 65.7422 68.6641 65.7422H22.9766C14.7422 65.7422 7.96875 58.9688 7.96875 50.7344C7.96875 43.5625 12.8828 37.7188 19.5234 36.125C19.3906 35.4609 19.3906 34.7969 19.3906 34.1328C19.3906 28.0234 24.3047 23.1094 30.4141 23.1094C33.3359 23.1094 36.125 24.3047 38.1172 26.1641C39.7109 17.9297 47.0156 11.6875 55.6484 11.6875C65.4766 11.6875 73.4453 19.6563 73.4453 29.4844C73.4453 31.7422 73.0469 34 72.25 35.9922C78.7578 37.7187 83.6719 43.5625 83.6719 50.7344Z" fill="#E4EBF7"/>
<path d="M72.1172 36.125C72.9141 34.1328 73.3125 32.0078 73.3125 29.6172C73.3125 24.4375 71.0547 19.6563 67.4688 16.4688C67.4688 36.6562 51.1328 52.9922 30.9453 52.9922H8.10156C9.16406 60.2969 15.4062 65.875 22.9766 65.875H68.1328C76.1016 65.875 83.0078 59.8984 83.5391 51.9297C84.2031 44.2266 79.1563 37.7188 72.1172 36.125Z" fill="#C9D8EF"/>
<path d="M7.96875 49.4062C8.5 42.7656 13.2812 37.4531 19.5234 35.9922C19.3906 35.3281 19.3906 34.6641 19.3906 34C19.3906 27.8906 24.3047 22.9766 30.4141 22.9766C33.3359 22.9766 36.125 24.1719 38.1172 26.0313C39.7109 17.7969 47.0156 11.5547 55.6484 11.5547C65.4766 11.5547 73.4453 19.5234 73.4453 29.3516C73.4453 31.6094 73.0469 33.8672 72.25 35.8594C78.8906 37.4531 83.8047 43.4297 83.8047 50.4687C83.8047 58.8359 77.0312 65.4766 68.7969 65.4766H66.6719" stroke="#A5AEC5" stroke-width="2" stroke-miterlimit="10" stroke-linecap="round" stroke-linejoin="round"/>
<path d="M1.32812 54.7188C4.25 54.7188 4.25 57.5078 7.30469 57.5078C10.2266 57.5078 10.2266 54.7188 13.2812 54.7188C16.2031 54.7188 16.2031 57.5078 19.2578 57.5078C22.1797 57.5078 22.1797 54.7188 25.2344 54.7188C28.1563 54.7188 28.1563 57.5078 31.2109 57.5078C34.1328 57.5078 34.1328 54.7188 37.1875 54.7188C40.1094 54.7188 40.1094 57.5078 43.1641 57.5078C46.0859 57.5078 46.0859 54.7188 49.1406 54.7188" stroke="#A5AEC5" stroke-width="2" stroke-miterlimit="10" stroke-linecap="round" stroke-linejoin="round"/>
<path d="M1.32812 70.5234C4.25 70.5234 4.25 73.3125 7.30469 73.3125C10.2266 73.3125 10.2266 70.5234 13.2812 70.5234C16.2031 70.5234 16.2031 73.3125 19.2578 73.3125C22.1797 73.3125 22.1797 70.5234 25.2344 70.5234C28.1563 70.5234 28.1563 73.3125 31.2109 73.3125C34.1328 73.3125 34.1328 70.5234 37.1875 70.5234C40.1094 70.5234 40.1094 73.3125 43.1641 73.3125C46.0859 73.3125 46.0859 70.5234 49.1406 70.5234" stroke="#A5AEC5" stroke-width="2" stroke-miterlimit="10" stroke-linecap="round" stroke-linejoin="round"/>
<path d="M12.8828 62.9531C15.8047 62.9531 15.8047 65.7422 18.8594 65.7422C21.7813 65.7422 21.7813 62.9531 24.8359 62.9531C27.7578 62.9531 27.7578 65.7422 30.8125 65.7422C33.7344 65.7422 45.6875 62.9531 48.6094 62.9531C51.5313 62.9531 51.5313 65.7422 54.5859 65.7422C57.5078 65.7422 57.5078 62.9531 60.5625 62.9531" stroke="#A5AEC5" stroke-width="2" stroke-miterlimit="10" stroke-linecap="round" stroke-linejoin="round"/>
</svg>
