<svg width="85" height="85" viewBox="0 0 85 85" fill="none" xmlns="http://www.w3.org/2000/svg">
<path d="M62.0067 27.1947C60.2353 25.2608 57.4815 22.6506 56.3099 28.5444C55.9114 30.5484 54.9806 32.0932 54.1829 33.337C53.3231 28.9854 50.7362 24.4812 48.2988 21.4443C47.3867 20.3081 44.1504 15.7913 43.5287 8.23493C43.4359 7.10718 42.0963 6.57759 41.2584 7.33828C33.2511 14.6071 28.856 24.6042 28.6928 35.8589C28.6928 35.8589 25.3586 33.0485 23.5472 27.82C23.0594 26.412 21.1718 26.1434 20.3529 27.3883C20.1957 27.6274 20.0499 27.8668 19.9184 28.0992C13.7405 39.023 10.7686 52.2885 13.516 64.6301C18.1097 85.2986 48.4962 91.0769 64.5829 78.0863C80.3221 65.3768 75.319 41.7214 62.0067 27.1947Z" fill="#ED694A"/>
<path d="M17.7918 65.9277C15.0762 53.4542 17.9506 40.0595 23.9835 28.9647C23.8309 28.5966 23.6842 28.216 23.547 27.8202C23.0593 26.4122 21.1717 26.1436 20.3527 27.3885C20.1955 27.6276 20.0499 27.867 19.9184 28.0994C13.7405 39.0232 10.7686 52.2887 13.516 64.6303C15.6113 74.0577 23.0734 80.3852 32.0965 83.2488C25.0574 79.839 19.5451 73.9938 17.7918 65.9277Z" fill="#D8553A"/>
<path d="M32.9894 35.6517C33.3229 25.4373 37.0174 16.2782 43.6298 9.24215C43.5843 8.85467 43.5506 8.5082 43.5289 8.24523C43.4341 7.10785 42.1435 6.53742 41.3092 7.29147C33.5754 14.2837 28.8616 24.1797 28.6924 35.8586L30.1399 36.9827C30.8527 37.5364 31.8186 37.5123 32.4995 37.0051C32.9057 36.6608 32.964 36.1412 32.9894 35.6517Z" fill="#D8553A"/>
<path d="M57.1492 42.3036C55.841 40.8753 53.8068 38.9471 52.9415 43.3006C52.6473 44.7806 51.9595 45.9218 51.3707 46.8405C50.7357 43.6263 48.8248 40.2993 47.0245 38.0563C46.3509 37.2171 43.9606 33.881 43.5012 28.2994C43.4326 27.4663 42.4433 27.0754 41.8244 27.6372C35.9101 33.0059 32.6637 40.3903 32.5433 48.7031C32.5433 48.7031 30.0805 46.6272 28.7427 42.7653C28.3825 41.7254 26.9881 41.527 26.3833 42.4466C26.2673 42.6231 26.1595 42.8 26.0624 42.9717C21.4991 51.0402 19.3041 60.8383 21.3333 69.9542C24.7263 85.2204 47.1703 89.4884 59.0524 79.8932C70.6775 70.5059 66.9821 53.0336 57.1492 42.3036Z" fill="#F4A32C"/>
<path d="M25.5652 71.1518C23.7686 62.2408 25.6294 52.6791 29.5748 44.717C29.2742 44.1283 28.9893 43.4775 28.7426 42.7656C28.3823 41.7257 26.988 41.5272 26.3832 42.4467C26.2671 42.6232 26.1594 42.8002 26.0623 42.972C21.4991 51.0405 19.3043 60.8386 21.3331 69.9544C22.9113 77.0545 28.6108 81.774 35.4513 83.8278C30.5912 81.3905 26.7645 77.1083 25.5652 71.1518Z" fill="#E89528"/>
<path d="M52.7153 56.0974C51.8298 55.1305 50.4525 53.8251 49.8668 56.7722C49.6677 57.7743 49.2021 58.5466 48.8033 59.1685C48.3733 56.9925 47.0801 54.7405 45.8612 53.2221C45.4053 52.654 43.7871 50.3957 43.476 46.6174C43.4295 46.0534 42.76 45.7886 42.341 46.1691C38.3373 49.8035 36.1398 54.8023 36.0583 60.4294C36.0583 60.4294 34.391 59.024 33.4855 56.41C33.2417 55.7061 32.2979 55.5718 31.8885 56.1941C31.8098 56.3135 31.7371 56.4334 31.6711 56.5496C28.5823 62.0115 27.0963 68.6442 28.4699 74.8151C30.7667 85.1494 45.9599 88.0386 54.0032 81.5432C56.7576 79.319 58.4654 76.1847 58.8117 72.7178C59.3345 67.4668 57.3136 61.1152 52.7153 56.0974Z" fill="#F4D44E"/>
<path d="M48.6005 68.8976C48.1071 68.3588 47.3399 67.6317 47.0135 69.2734C46.9026 69.8317 46.6433 70.262 46.421 70.6085C46.1814 69.3963 45.4609 68.1415 44.7819 67.2957C44.5279 66.9791 43.6263 65.7208 43.453 63.6159C43.4271 63.3017 43.0539 63.1544 42.8206 63.3661C40.5902 65.391 39.3657 68.1759 39.3204 71.3109C39.3204 71.3109 38.3915 70.528 37.887 69.0715C37.751 68.6792 37.2252 68.6044 36.9973 68.9513C36.9535 69.0179 36.913 69.0847 36.8764 69.1494C35.1555 72.1925 34.3276 75.8876 35.0929 79.3257C36.8358 87.1667 51.1211 86.929 51.9973 78.1571C52.2882 75.2317 51.1622 71.6929 48.6005 68.8976Z" fill="#EAE9E8"/>
<path d="M38.4098 80.8818C37.6444 77.8064 38.4723 74.5008 40.1933 71.7788C40.2298 71.7209 40.2705 71.6613 40.3141 71.6017C40.5422 71.2914 41.068 71.3583 41.2038 71.7091C41.7083 73.012 42.6372 73.7124 42.6372 73.7124C42.6745 71.4081 43.5093 69.3163 45.0424 67.6386C44.6996 67.1638 43.6507 66.0189 43.453 63.6162C43.4271 63.3019 43.0539 63.1547 42.8206 63.3663C40.5902 65.3912 39.3657 68.1761 39.3204 71.3112C39.3204 71.3112 38.3915 70.5282 37.887 69.072C37.7512 68.6797 37.2252 68.6048 36.9973 68.9518C36.9535 69.0183 36.913 69.0851 36.8764 69.1498C35.1555 72.1927 34.3276 75.8881 35.0929 79.3261C35.8012 82.5127 38.7107 84.4279 41.9275 84.8901C40.1923 84.0379 38.8587 82.6886 38.4098 80.8818Z" fill="#F7E7A1"/>
<path d="M30.6457 11.2965C34.2358 8.37648 34.2278 2.91341 30.6457 0C27.0556 2.91988 27.0634 8.38313 30.6457 11.2965Z" fill="#D8553A"/>
<path d="M73.6765 34.7326C77.2666 31.8125 77.2586 26.3494 73.6765 23.436C72.0356 24.7705 70.0944 31.8192 73.6765 34.7326Z" fill="#D8553A"/>
<path d="M10.0912 36.956C12.6786 34.8514 12.6729 30.9144 10.0912 28.8145C8.90867 29.7762 7.50949 34.8563 10.0912 36.956Z" fill="#D8553A"/>
<path d="M54.9032 19.4382C57.4905 17.3336 57.4849 13.3966 54.9032 11.2966C52.3158 13.401 52.3216 17.3384 54.9032 19.4382Z" fill="#D8553A"/>
<path d="M35.8442 47.3682C36.4384 40.3537 39.117 34.1167 43.6147 29.3618C43.5692 29.0172 43.5309 28.6634 43.501 28.2996C43.4324 27.4666 42.4431 27.0756 41.8242 27.6374C37.1376 31.8917 34.1297 37.4127 33.0218 43.6574L33.0201 43.6569C32.9379 44.1201 32.836 44.7948 32.7716 45.3249C32.7717 45.3254 32.7719 45.3257 32.7722 45.3262C32.6376 46.4325 32.5596 47.5588 32.543 48.7035C32.6681 48.7279 35.5017 50.1843 35.8442 47.3682Z" fill="#E89528"/>
<path d="M32.6101 76.281C31.3891 70.5161 32.429 64.3686 34.8449 59.042C34.3769 58.3857 33.8647 57.5042 33.4857 56.4098C33.2417 55.7059 32.298 55.5716 31.8885 56.194C31.8099 56.3133 31.7369 56.4332 31.6711 56.5494C28.5823 62.0113 27.0963 68.644 28.4699 74.8149C29.5457 79.6546 33.4498 82.8614 38.1233 84.2362C35.403 82.4302 33.3452 79.7572 32.6101 76.281Z" fill="#E8C842"/>
<path d="M40.4658 57.9102C40.8706 55.0174 42.0538 51.8301 43.9163 49.1654C43.7134 48.413 43.5539 47.5628 43.476 46.6174C43.4295 46.0534 42.7598 45.7886 42.341 46.1691C39.8464 48.4337 38.0559 51.2291 37.0388 54.3749L37.0361 54.3743C36.8761 54.8685 36.6498 55.6873 36.5126 56.3336C36.5138 56.3333 36.515 56.3333 36.5161 56.3328C36.2352 57.6516 36.079 59.0202 36.0586 60.4292C38.2985 60.7088 40.1514 60.1541 40.4658 57.9102Z" fill="#E8C842"/>
</svg>
