<svg width="78" height="78" viewBox="0 0 78 78" fill="none" xmlns="http://www.w3.org/2000/svg">
<path fill-rule="evenodd" clip-rule="evenodd" d="M18.9107 65.5762C23.8427 66.6289 26.3085 67.1552 26.3085 67.1552C24.1133 69.9146 23.0184 73.0217 23.0237 76.4765C20.209 73.5652 18.7208 69.6212 18.9107 65.5762Z" fill="#57CFFA"/>
<path fill-rule="evenodd" clip-rule="evenodd" d="M30.6185 59.603C35.0467 60.9167 37.9982 62.9383 37.7375 64.7673C37.3902 67.2042 31.4727 68.3765 24.5204 67.3857C17.568 66.3948 12.2136 63.6161 12.5609 61.1792C12.8216 59.3501 16.2204 58.2336 20.8391 58.2092C18.7188 58.4449 17.2702 59.105 17.1337 60.0631C16.9058 61.6626 20.42 63.4864 24.9833 64.1368C29.5466 64.7871 33.4306 64.0176 33.6585 62.4182C33.795 61.4601 32.5886 60.4216 30.6185 59.603Z" fill="#83DEFF"/>
<path fill-rule="evenodd" clip-rule="evenodd" d="M25.9915 67.5647C25.5074 67.5156 25.0167 67.4563 24.5204 67.3857C17.568 66.3948 12.2136 63.6161 12.5609 61.1792C12.8216 59.3501 16.2204 58.2336 20.8391 58.2092C18.7188 58.4449 17.2702 59.105 17.1337 60.0631C16.9339 61.4647 19.6079 63.0385 23.3429 63.8441C24.0828 65.1648 24.9682 66.4134 25.9915 67.5647Z" fill="#57CFFA"/>
<path fill-rule="evenodd" clip-rule="evenodd" d="M28.3005 51.7928C33.4891 54.5091 36.6675 57.7455 35.8963 59.9575C34.8689 62.9047 27.2199 62.9175 18.8117 59.9863C10.4036 57.055 4.42028 52.2896 5.44784 49.3423C6.219 47.1303 10.7205 46.5714 16.4733 47.6694C13.7775 47.4447 11.814 47.9121 11.41 49.0709C10.7355 51.0052 14.6627 54.1331 20.1815 56.057C25.7003 57.981 30.7208 57.9725 31.3952 56.0381C31.7992 54.8794 30.5517 53.2926 28.3005 51.7928Z" fill="#83DEFF"/>
<path fill-rule="evenodd" clip-rule="evenodd" d="M22.0056 60.9709C20.9618 60.6913 19.8931 60.3633 18.8117 59.9863C10.4036 57.055 4.42028 52.2896 5.44784 49.3423C6.219 47.1303 10.7205 46.5714 16.4733 47.6694C13.7775 47.4447 11.814 47.9121 11.41 49.0709C10.7355 51.0052 14.6627 54.1331 20.1815 56.057C20.3966 56.132 20.6108 56.2037 20.8242 56.2729C21.0375 57.881 21.4345 59.4573 22.0056 60.9707V60.9709Z" fill="#57CFFA"/>
<path fill-rule="evenodd" clip-rule="evenodd" d="M40.8865 44.2637C47.8 46.5985 52.3403 49.9641 51.8209 52.8362C51.129 56.663 41.7178 58.1649 30.8004 56.191C19.883 54.2171 11.5937 49.5147 12.2855 45.688C12.8048 42.8157 18.2362 41.2532 25.5296 41.4871C22.1683 41.7342 19.8425 42.6909 19.5705 44.1954C19.1164 46.7071 24.5572 49.7936 31.723 51.0892C38.8886 52.3848 45.0659 51.399 45.52 48.8873C45.7921 47.3828 43.9484 45.6723 40.8865 44.2637Z" fill="#83DEFF"/>
<path fill-rule="evenodd" clip-rule="evenodd" d="M20.6417 53.2967C15.209 51.0552 11.8349 48.1852 12.2864 45.6878C12.7782 42.9684 17.6738 41.4233 24.3837 41.4652C24.3487 41.5161 24.3138 41.5673 24.2791 41.6184C21.6013 41.9912 19.8081 42.8856 19.5714 44.1953C19.391 45.1933 20.1419 46.282 21.5611 47.3131C21.2144 48.4504 20.9613 49.623 20.8093 50.8203C20.7043 51.6463 20.6492 52.4732 20.6416 53.2967H20.6417Z" fill="#57CFFA"/>
<path fill-rule="evenodd" clip-rule="evenodd" d="M38.5114 33.6391C46.0191 37.4143 50.6549 41.9828 49.6004 45.1744C48.1955 49.4266 37.222 49.6247 25.0906 45.6165C12.9591 41.6083 4.2635 34.9121 5.66841 30.6597C6.72294 27.4681 13.1678 26.5606 21.4468 28.0011C17.5741 27.742 14.7679 28.4585 14.2157 30.1303C13.2935 32.9212 19.0009 37.3165 26.9635 39.9473C34.926 42.5781 42.1285 42.4482 43.0507 39.6571C43.6031 37.9853 41.776 35.7381 38.5113 33.6391H38.5114Z" fill="#83DEFF"/>
<path fill-rule="evenodd" clip-rule="evenodd" d="M22.5423 44.7162C11.767 40.662 4.36403 34.6076 5.6684 30.6596C6.66579 27.6409 12.4858 26.6659 20.1187 27.788C20.1496 27.8426 20.1808 27.8968 20.2122 27.951C16.9856 27.9107 14.7074 28.6419 14.2156 30.1303C13.3368 32.7904 18.4801 36.9078 25.8585 39.5659C24.5089 41.114 23.3918 42.8494 22.5423 44.7162Z" fill="#57CFFA"/>
<path fill-rule="evenodd" clip-rule="evenodd" d="M54.6781 22.7289C64.3862 26.9326 70.542 32.34 69.4468 36.4274C67.9876 41.8731 54.2101 42.913 38.6739 38.75C23.1378 34.5871 11.726 26.7979 13.1853 21.3522C14.2805 17.265 22.3153 15.6597 32.8245 16.8733C27.9386 16.8267 24.4633 17.9297 23.8897 20.0707C22.9319 23.645 30.4221 28.7575 40.6195 31.4899C50.8168 34.2222 59.8598 33.5397 60.8176 29.9654C61.3913 27.8245 58.9331 25.1317 54.6784 22.7289H54.6781Z" fill="#83DEFF"/>
<path fill-rule="evenodd" clip-rule="evenodd" d="M27.4574 34.8327C18.0371 30.6614 12.1089 25.3693 13.1853 21.3521C13.6429 19.6439 15.3135 18.3695 17.8697 17.553C17.8372 17.9445 17.817 18.3391 17.8104 18.7362C17.6989 25.5762 21.5113 31.7804 27.4574 34.8327Z" fill="#57CFFA"/>
<path fill-rule="evenodd" clip-rule="evenodd" d="M55.6031 8.68495C66.7254 13.5008 73.7777 19.6961 72.523 24.3788C70.8513 30.6177 55.067 31.8091 37.2676 27.0398C19.4682 22.2705 6.39422 13.3465 8.06589 7.10759C9.32059 2.425 18.5258 0.585903 30.5658 1.97634C24.9681 1.92302 20.9868 3.18656 20.3296 5.63945C19.2322 9.7343 27.8134 15.5916 39.4962 18.7221C51.179 21.8525 61.5392 21.0705 62.6363 16.9757C63.2935 14.5228 60.4773 11.4377 55.6029 8.68511L55.6031 8.68495Z" fill="#83DEFF"/>
<path fill-rule="evenodd" clip-rule="evenodd" d="M17.809 19.176C10.984 15.1285 7.109 10.6784 8.06588 7.10759C9.32043 2.425 18.5256 0.585903 30.5657 1.97634C24.968 1.92302 20.9866 3.18656 20.3294 5.63945C20.0716 6.60165 20.3483 7.66105 21.0737 8.7596C19.0546 11.6118 17.87 15.064 17.8101 18.7363C17.8076 18.8831 17.8078 19.0297 17.809 19.176Z" fill="#57CFFA"/>
<path fill-rule="evenodd" clip-rule="evenodd" d="M46.8921 17.4328C53.1727 18.3339 57.9024 17.7675 58.4368 15.7731C59.1489 13.1161 52.1443 8.93063 42.7917 6.42457C33.4392 3.91852 25.2803 4.041 24.5684 6.69818C24.0339 8.69251 27.8468 11.5477 33.7366 13.9077C31.1394 12.5957 29.6017 11.1911 29.8815 10.1465C30.3487 8.40245 35.7039 8.32201 41.8426 9.96687C47.9812 11.6117 52.5787 14.3588 52.1114 16.1028C51.8315 17.1474 49.7974 17.5949 46.8922 17.4326L46.8921 17.4328Z" fill="#83DEFF"/>
<path fill-rule="evenodd" clip-rule="evenodd" d="M49.9304 12.2179C47.9169 11.0176 45.1316 9.90559 42.0845 9.08888C39.1516 8.30294 36.2924 7.8747 33.9971 7.8747C33.9031 7.8747 33.8159 7.8747 33.7286 7.87607C30.9433 7.91903 29.3526 8.60427 29.0035 9.91428C28.9432 10.1324 28.9298 10.3472 28.9432 10.559C26.3256 8.96655 25.2787 7.60612 25.4532 6.939C25.5874 6.44709 26.7888 5.59868 30.4599 5.54369C33.8158 5.49677 38.118 6.12092 42.5611 7.31225C47.0042 8.5022 51.0378 10.1084 53.9239 11.8309C57.0717 13.7142 57.6891 15.0486 57.5549 15.5423C57.3803 16.2079 55.7897 16.8616 52.7293 16.9332C52.8501 16.7565 52.9374 16.5613 52.9977 16.3452C53.3534 15.0335 52.3131 13.6453 49.9304 12.2179ZM46.9504 16.5248C46.4538 16.4942 46.0376 16.8599 45.9906 17.3473C45.937 17.8334 46.2792 18.2723 46.7693 18.3422C48.1183 18.5357 50.1854 18.7717 52.2594 18.7717C55.4877 18.7717 58.7362 18.2004 59.3268 16.0144C59.7899 14.2747 58.2462 12.2851 54.8636 10.2621C51.8367 8.45528 47.6352 6.77935 43.0309 5.54719C38.4268 4.3129 33.9567 3.66057 30.4331 3.71556C26.4867 3.77528 24.1578 4.7256 23.688 6.46735C22.7282 10.0547 30.158 13.4627 33.3997 14.7608C33.8561 14.9436 34.3729 14.7349 34.5743 14.2884C34.7757 13.8438 34.5877 13.3181 34.1514 13.097C31.158 11.5859 30.7284 10.5333 30.7688 10.3885C30.8023 10.2609 31.44 9.73924 33.7554 9.70435C35.9233 9.66611 38.7222 10.0809 41.6082 10.8545C44.5009 11.6284 47.1184 12.6703 48.9909 13.7872C50.9776 14.9738 51.2661 15.7448 51.2326 15.8712C51.1923 16.0159 50.293 16.712 46.9506 16.5248H46.9504ZM71.6426 24.1464C72.2937 21.7287 70.0721 19.0672 68.0921 17.262C66.6088 15.9047 64.7429 14.5548 62.5684 13.2479C63.5147 14.6327 63.8571 15.9808 63.5214 17.2164C62.8839 19.6006 59.8972 21.1134 55.1118 21.4744C50.6418 21.8111 45.0108 21.1499 39.2656 19.6096C33.5137 18.0697 28.3122 15.8301 24.6074 13.3029C20.6408 10.5957 18.8153 7.79228 19.4528 5.40825C19.7817 4.17122 20.748 3.17322 22.2582 2.44639C19.7212 2.49072 17.4393 2.73036 15.4728 3.16256C12.8553 3.73704 9.60013 4.92974 8.95587 7.34927C8.26453 9.92525 10.7881 13.3972 15.8822 16.8752C21.3186 20.5834 28.9967 23.8815 37.5071 26.1622C56.2594 31.1865 70.3001 29.1769 71.6424 24.1465L71.6426 24.1464ZM28.2854 25.1246C31.0573 26.1697 33.9969 27.1127 37.0374 27.9276C44.2591 29.8623 51.3533 30.883 57.4207 30.883C57.9711 30.883 58.5147 30.8739 59.0517 30.8558C58.0651 31.5427 56.3468 32.018 54.1186 32.1857C50.4071 32.466 45.6955 31.9068 40.8632 30.6119C35.8429 29.2667 31.2788 27.2329 28.2854 25.1246ZM68.5686 36.1954C67.978 38.3937 64.5886 39.8836 59.273 40.2858C53.5614 40.7153 46.333 39.8593 38.9166 37.8712C31.5002 35.8845 24.8086 33.0113 20.077 29.7816C15.6741 26.7758 13.4861 23.7914 14.07 21.5931C14.3117 20.6912 15.0298 19.9068 16.1843 19.2577C18.426 20.6729 20.9764 22.0197 23.7617 23.2645C25.9966 26.7013 32.4599 30.254 40.3865 32.3777C44.5612 33.4942 48.6553 34.0839 52.1654 34.0839C52.8903 34.0839 53.5883 34.0595 54.2594 34.0091C58.2059 33.7105 60.6959 32.574 61.528 30.711C62.904 30.5892 64.1791 30.4033 65.3403 30.155C67.8638 32.4124 69.0116 34.5469 68.5686 36.1954ZM50.9237 52.6775C50.6754 54.076 48.4604 55.2397 45.0041 55.7912C41.1382 56.4082 36.1514 56.233 30.97 55.296C19.8488 53.285 12.6741 48.7072 13.1909 45.8554C13.3789 44.7996 14.6674 43.8808 16.8151 43.2488C17.4192 43.5443 18.0366 43.8321 18.6608 44.1139C18.493 45.2656 19.0098 47.0069 22.3455 48.8975C24.7282 50.2488 28.0034 51.3489 31.5673 51.9933C33.7151 52.3816 35.8292 52.5798 37.7554 52.5798C39.024 52.5798 40.2119 52.4942 41.2858 52.3224C45.1584 51.7051 46.2188 50.2048 46.4269 49.0546C46.4471 48.9403 46.4538 48.8259 46.4605 48.71C46.8363 48.5945 47.192 48.4664 47.5209 48.3246C49.9103 49.8725 51.1519 51.4462 50.9237 52.6772V52.6775ZM36.836 64.6426C36.7621 65.1895 35.8226 65.9967 33.4331 66.4692C31.037 66.9445 27.9161 66.9506 24.6543 66.4859C21.3924 66.0197 18.399 65.1439 16.2312 64.0178C14.07 62.8967 13.3921 61.8591 13.4727 61.3122C13.5533 60.7547 14.399 60.1772 15.7144 59.7735C15.8822 59.8466 16.0568 59.9197 16.2312 59.9901C15.9427 62.4611 20.3387 64.402 24.8557 65.0464C29.4129 65.6952 34.2117 65.0476 34.5674 62.5524C34.5741 62.4899 34.5808 62.4291 34.5876 62.3665C34.6345 62.3454 34.6815 62.324 34.7352 62.3025C36.3794 63.2791 36.9097 64.1413 36.8358 64.6427L36.836 64.6426ZM24.3322 74.1366C23.0368 72.2779 22.2249 70.1269 21.963 67.8646C22.755 68.0322 23.5672 68.1769 24.3926 68.2956C25.0435 68.3872 25.6879 68.4617 26.3255 68.5195C25.2851 70.2685 24.6208 72.147 24.3321 74.1366H24.3322ZM31.5338 63.0352C31.0841 63.0702 30.6143 63.0886 30.131 63.0886C26.7015 63.0886 22.4529 62.2264 18.5132 60.8536C18.493 60.8475 18.4796 60.8401 18.4594 60.834C19.3251 61.6092 21.5535 62.729 25.1174 63.2363C28.0773 63.6584 30.272 63.4177 31.5337 63.0352H31.5338ZM9.16397 53.9601C11.6137 55.9073 15.1441 57.7429 19.1173 59.1277C28.017 62.2291 34.3863 61.5285 35.0373 59.6608C35.2119 59.155 35.0105 58.4498 34.46 57.6545C33.5338 57.5506 32.601 57.4212 31.6613 57.2676C29.6949 59.1611 24.3456 58.4802 19.8824 56.9247C14.493 55.0449 9.55321 51.6412 10.5532 48.7741C10.6271 48.5534 10.7546 48.2988 10.9694 48.0461C8.42571 48.0918 6.6538 48.6829 6.31819 49.6471C5.96917 50.6342 7.06315 52.2856 9.16397 53.9599V53.9601ZM12.2782 49.3762C12.1306 49.7936 12.6205 50.7227 14.0501 51.8577C15.6273 53.1145 17.9093 54.3015 20.4865 55.1989C23.594 56.2819 26.2719 56.6491 28.0907 56.5731C23.7148 55.5796 19.7549 54.1401 16.7414 52.4339C14.8554 51.3614 13.4325 50.2279 12.5265 49.0823C12.399 49.1754 12.3117 49.2743 12.2782 49.3765V49.3762ZM44.4002 49.1719C43.4806 49.3107 42.4806 49.3914 41.3867 49.4111C41.2055 49.4143 41.0242 49.4158 40.8429 49.4158C36.212 49.4158 30.5472 48.3844 24.8089 46.4891C23.3525 46.0077 21.9296 45.4836 20.5605 44.9244C21.2317 46.5135 25.3593 49.0136 31.8897 50.1941C38.5208 51.3931 43.2995 50.4548 44.4002 49.1719ZM15.0904 30.4216C15.2314 29.9874 15.7213 29.6125 16.4798 29.3415C17.2382 29.992 18.0973 30.644 19.0436 31.2915C23.9431 34.6339 30.8292 37.5983 38.4402 39.6382C39.3463 39.8806 40.2456 40.1044 41.1449 40.3131C40.3126 40.6895 39.0442 40.912 37.5005 40.9287C34.5877 40.9575 30.95 40.304 27.2519 39.0838C18.8623 36.311 14.5132 32.169 15.0904 30.4216ZM6.53985 30.9517C7.10367 29.2575 10.0902 28.2552 14.4529 28.2552C14.4998 28.2552 14.5469 28.2552 14.5938 28.2568C13.8623 28.7685 13.5132 29.3597 13.3522 29.8488C12.0838 33.6938 19.2718 38.3722 26.6815 40.8206C30.5608 42.1018 34.4133 42.7858 37.5208 42.7553C40.474 42.725 42.5009 42.0576 43.4605 40.8177C44.9035 41.1115 46.3331 41.3614 47.7292 41.564C48.4406 42.5251 49.0983 43.7974 48.7359 44.8926C48.2057 46.5043 45.4472 47.5098 41.3531 47.5845C36.8294 47.6637 31.1514 46.6597 25.3794 44.7526C12.9494 40.6454 5.47268 34.1826 6.53985 30.9517ZM55.9708 7.85063C55.5211 7.65868 55.0044 7.84728 54.7895 8.28283C54.5747 8.71838 54.7358 9.24595 55.1587 9.48497C59.736 12.0704 62.2663 14.852 61.7562 16.7442C61.3469 18.2754 58.8099 19.3614 54.9708 19.6509C50.7022 19.9738 45.2926 19.3326 39.7354 17.8442C27.7886 14.6433 20.3858 8.9702 21.218 5.88083C21.7214 3.98811 25.3054 2.84111 30.5606 2.89489H30.5674C31.0506 2.89489 31.4532 2.51966 31.4802 2.03856C31.5137 1.55259 31.158 1.12907 30.6748 1.0727C17.5534 -0.441745 8.55307 1.78126 7.18396 6.87533C6.29138 10.2298 8.88868 14.2242 14.5131 18.1503C13.3586 18.9684 12.6136 19.9632 12.305 21.121C11.8687 22.7585 12.3653 24.5653 13.7212 26.4347C8.75462 26.549 5.6136 27.9215 4.80816 30.3772C3.99601 32.8315 5.74781 35.8785 9.7479 38.9586C11.1641 40.048 12.8083 41.1053 14.6206 42.1076C12.3253 43.1465 11.5803 44.4888 11.3923 45.5292C11.3521 45.7562 11.3318 45.9849 11.3385 46.2147C7.61357 46.1995 5.23761 47.1882 4.58665 49.0454C3.94223 50.8917 5.13021 53.0856 8.02977 55.3907C9.51299 56.5743 11.3722 57.7153 13.4595 58.7467C12.1842 59.4824 11.7614 60.3586 11.6607 61.0546C11.4997 62.1804 12.0165 63.8913 15.3857 65.6402C16.7146 66.3304 18.3188 66.9308 20.0838 67.412C20.3522 71.0544 21.8758 74.4776 24.4262 77.116C24.6007 77.2974 24.8423 77.3949 25.0839 77.3949C25.198 77.3949 25.3188 77.3735 25.4262 77.3278C25.7752 77.1878 25.9967 76.8524 25.9967 76.4794C25.9967 73.6258 26.8089 70.9918 28.4129 68.6428C28.7149 68.6504 29.017 68.6563 29.3123 68.6563C30.9433 68.6563 32.4601 68.5253 33.789 68.2633C37.5139 67.5244 38.4871 66.0271 38.6483 64.9012C38.7825 63.9582 38.4402 62.5887 36.2924 61.1275C36.4938 60.8672 36.6549 60.5808 36.7623 60.2624C36.957 59.6999 37.0441 58.8881 36.6414 57.8567C37.7891 57.939 38.91 57.9801 39.9906 57.9801C41.8967 57.9801 43.682 57.8521 45.2927 57.5963C49.6755 56.8956 52.3132 55.2653 52.7226 53.003C53.0649 51.1185 51.8635 49.1565 49.2325 47.278C49.8298 46.76 50.2459 46.1538 50.4741 45.4651C50.7425 44.6487 50.8231 43.4313 50.0514 41.8591C52.2192 42.0984 54.2998 42.2217 56.2664 42.2217C57.3536 42.2217 58.4074 42.1837 59.4141 42.1074C65.6425 41.6368 69.5218 39.7051 70.3339 36.6689C70.9112 34.5208 69.9043 32.0999 67.4211 29.6078C70.7434 28.5444 72.8173 26.8458 73.4079 24.62C74.7771 19.5256 68.0924 13.0998 55.9711 7.85033L55.9708 7.85063Z" fill="#359FCC"/>
</svg>
